<svg xmlns="http://www.w3.org/2000/svg" id="Layer_3" data-name="Layer 3" version="1.1" viewBox="0 0 32 29.752">
  <defs/>
  <defs id="defs4"/>
  <g id="g857" fill="none" stroke="#eee" stroke-opacity="1" transform="translate(-5.5 -6.44)">
    <g id="g875" transform="matrix(1.56098 0 0 1.56098 -3.085 -3.613)">
      <path id="line8" fill="none" stroke="#eee" stroke-opacity="1" d="M14 9h11" class="cls-1"/>
      <path id="path10" fill="none" stroke="#eee" stroke-opacity="1" d="M10 8.94A2.08 2.08 0 018 11a2.08 2.08 0 01-2-2.06 2 2 0 014 0z" class="cls-2"/>
      <path id="path12" fill="#eee" fill-opacity="1" stroke="#eee" stroke-opacity="1" d="M10 8.94A2.08 2.08 0 018 11a2.08 2.08 0 01-2-2.06 2 2 0 014 0z"/>
      <path id="line14" fill="none" stroke="#eee" stroke-opacity="1" d="M14 16h11" class="cls-1"/>
      <path id="path16" fill="none" stroke="#eee" stroke-opacity="1" d="M10 15.94A2.08 2.08 0 018 18a2.08 2.08 0 01-2-2.06 2 2 0 014 0z" class="cls-2"/>
      <path id="line18" fill="none" stroke="#eee" stroke-opacity="1" d="M14 23h11" class="cls-1"/>
      <path id="path20" fill="none" stroke="#eee" stroke-opacity="1" d="M10 22.94A2.08 2.08 0 018 25a2.08 2.08 0 01-2-2.06 2 2 0 014 0z" class="cls-2"/>
    </g>
  </g>
</svg>
