<svg xmlns="http://www.w3.org/2000/svg" id="Design_Convert" data-name="Design Convert" version="1.1" viewBox="0 0 32 32">
  <defs/>
  <defs id="defs4"/>
  <path id="path8" fill="#eee" fill-opacity="1" stroke-width=".64" d="M12.77 0a1.92 1.92 0 00-1.887 1.92v5.12a.64.64 0 00.64.64.64.64 0 00.64-.64V1.92a.64.64 0 01.64-.64h16.42L18.287 6.464a.64.64 0 00-.365.576v17.28h-5.12a.64.64 0 01-.639-.64v-5.12a.64.64 0 00-1.28 0v5.12a1.92 1.92 0 001.92 1.92h5.12v5.76a.64.64 0 00.3.544.64.64 0 00.34.096.64.64 0 00.287-.07l12.088-6.042A1.92 1.92 0 0032 24.166V1.92A1.92 1.92 0 0030.08 0H12.802a1.92 1.92 0 00-.032 0zm17.95 1.99v22.176a.64.64 0 01-.352.577l-11.166 5.58V7.444zM6.385 6.398a.643.643 0 00-.436.187l-5.76 5.76a.64.64 0 000 .91l5.76 5.76a.64.64 0 00.455.185.64.64 0 00.455-.185.64.64 0 000-.91l-4.67-4.665h12.534a.64.64 0 000-1.28H2.188l4.67-4.665a.643.643 0 00-.473-1.097z"/>
</svg>
