<svg xmlns="http://www.w3.org/2000/svg" viewBox="0 0 28.098 32.001">
  <defs/>
  <g fill="none" stroke="#eee" stroke-linecap="round" stroke-linejoin="round" stroke-width=".337" paint-order="markers fill stroke">
    <path stroke-width="1" d="M2.341.497h23.442a1.84 1.84 0 011.844 1.844v4.062a1.84 1.84 0 01-1.844 1.845H2.34A1.84 1.84 0 01.497 6.403V2.341A1.84 1.84 0 012.34.497zM2.341 12.124h23.442a1.84 1.84 0 011.844 1.845v4.062a1.84 1.84 0 01-1.844 1.845H2.34A1.84 1.84 0 01.497 18.03v-4.062a1.84 1.84 0 011.844-1.845zM2.341 23.752h23.442a1.84 1.84 0 011.844 1.845v4.062a1.84 1.84 0 01-1.844 1.844H2.34A1.84 1.84 0 01.497 29.66v-4.062a1.84 1.84 0 011.844-1.845z"/>
  </g>
</svg>
