<svg xmlns="http://www.w3.org/2000/svg" id="svg15" version="1.1" viewBox="0 0 29.867 32">
  <defs/>
  <defs id="defs4"/>
  <g id="Layer_49" data-name="Layer 49" transform="matrix(1.06667 0 0 1.06667 -2.133 -1.067)">
    <g id="g849" fill="#eee" fill-opacity="1">
      <path id="path8" fill="#eee" fill-opacity="1" d="M29 31H3a1 1 0 01-1-1V2a1 1 0 011-1h20a1 1 0 01.71.29l6 6A1 1 0 0130 8v22a1 1 0 01-1 1zM4 29h24V8.41L22.59 3H4z" class="cls-1"/>
      <path id="path10" fill="#eee" fill-opacity="1" d="M20 10.003H9a1 1 0 01-1-1V2a1 1 0 011-1h11a1 1 0 011 1v7.003a1 1 0 01-1 1zm-10-2h9V3h-9z" class="cls-1"/>
      <path id="path12" fill="#eee" fill-opacity="1" d="M22 25H7a1 1 0 01-1-1V14a1 1 0 011-1h15a1 1 0 011 1v10a1 1 0 01-1 1zM8 23h13v-8H8z" class="cls-1"/>
    </g>
  </g>
</svg>
